<?xml version="1.0" encoding="UTF-8"?>
<svg version="1.1" xmlns="http://www.w3.org/2000/svg" width="225" height="225">
<path d="M0 0 C74.25 0 148.5 0 225 0 C225 74.25 225 148.5 225 225 C150.75 225 76.5 225 0 225 C0 150.75 0 76.5 0 0 Z " fill="#1A5083" transform="translate(0,0)"/>
<path d="M0 0 C74.25 0 148.5 0 225 0 C225 74.25 225 148.5 225 225 C213.78 225 202.56 225 191 225 C191.33 224.34 191.66 223.68 192 223 C192.66 223 193.32 223 194 223 C195.20469154 213.55607881 195.61199649 204.06064317 196.125 194.56005859 C196.24747632 192.30812089 196.37361047 190.05640846 196.5 187.8046875 C196.53544922 187.12534149 196.57089844 186.44599548 196.60742188 185.74606323 C196.85021657 181.4429133 197.33808244 177.25350982 198 173 C198.72445312 172.96261719 199.44890625 172.92523438 200.1953125 172.88671875 C208.02665315 172.38361264 208.02665315 172.38361264 215 169 C219.12104116 163.34244596 218.47835475 157.81096264 218.4375 151.0625 C218.45748047 149.89525391 218.47746094 148.72800781 218.49804688 147.52539062 C218.5196183 138.92799207 218.5196183 138.92799207 214 132 C211.17558084 130.06809729 208.6267144 129.67294539 205.25 129.375 C204.45078125 129.30023438 203.6515625 129.22546875 202.828125 129.1484375 C201.92320312 129.07496094 201.92320312 129.07496094 201 129 C201.0721875 127.99324219 201.144375 126.98648438 201.21875 125.94921875 C201.96015091 114.95243268 202.10886168 104.01922112 202 93 C181.06618344 81.86499119 159.342645 78.25296044 136.32666016 85.18554688 C129.59518744 87.5419155 123.21889074 90.8167832 116.91259766 94.1237793 C114.90214471 95.04483057 113.19202321 95.68340755 111 96 C108.36764849 94.86430319 105.94455111 93.67811033 103.4375 92.3125 C97.09965956 89.00810683 90.87102158 86.05589622 84 84 C83.25363281 83.77570313 82.50726563 83.55140625 81.73828125 83.3203125 C64.69392594 79.0953959 45.77798872 82.02536348 30 89 C29.22914062 89.3196875 28.45828125 89.639375 27.6640625 89.96875 C25.50577997 90.90705023 25.50577997 90.90705023 23 93 C21.96345738 97.77598239 21.97317488 102.17437336 22.33984375 107.02734375 C22.43330078 108.31318359 22.52675781 109.59902344 22.62304688 110.92382812 C22.72770109 112.26173155 22.83252082 113.59962204 22.9375 114.9375 C23.03909881 116.3026834 23.14001644 117.66791767 23.24023438 119.03320312 C23.48680456 122.3560299 23.74026925 125.67818035 24 129 C23.31292969 129.05115967 22.62585938 129.10231934 21.91796875 129.1550293 C21.01691406 129.23148682 20.11585937 129.30794434 19.1875 129.38671875 C18.29417969 129.45850342 17.40085937 129.53028809 16.48046875 129.60424805 C13.04836541 130.15183068 11.32251096 131.45975363 9 134 C5.88670428 139.02002617 6.67122214 144.65821535 6.6875 150.375 C6.67138672 151.4990625 6.65527344 152.623125 6.63867188 153.78125 C6.63462963 160.62072887 6.80198655 165.68170728 11.765625 170.83203125 C14.78752952 172.41166316 17.35808174 172.51790409 20.75 172.6875 C22.50570313 172.78611328 22.50570313 172.78611328 24.296875 172.88671875 C25.18890625 172.92410156 26.0809375 172.96148437 27 173 C27.2943169 176.12476877 27.58554893 179.24977895 27.875 182.375 C27.96595947 183.34421387 28.05691895 184.31342773 28.15063477 185.31201172 C28.66495789 190.90788286 29.11240284 196.50135379 29.47265625 202.109375 C29.55080566 203.27807129 29.62895508 204.44676758 29.70947266 205.65087891 C29.85964979 207.93890951 29.99892786 210.22768565 30.12646484 212.51708984 C30.19687988 213.56590332 30.26729492 214.6147168 30.33984375 215.6953125 C30.39519287 216.62359863 30.45054199 217.55188477 30.50756836 218.50830078 C30.90757652 221.47886889 30.90757652 221.47886889 34 225 C22.78 225 11.56 225 0 225 C0 150.75 0 76.5 0 0 Z " fill="#FDFEFE" transform="translate(0,0)"/>
<path d="M0 0 C2.18758107 2.29232422 2.34601406 4.64539206 2.38619804 7.73104286 C2.36103111 8.52658073 2.33586418 9.32211861 2.30993462 10.14176369 C2.3109568 10.99105446 2.31197899 11.84034523 2.31303215 12.71537209 C2.30816701 15.51398221 2.25378107 18.30930217 2.19885063 21.10733986 C2.18579051 23.05073705 2.17582829 24.99415733 2.16883659 26.93758583 C2.14214356 32.0460497 2.07341016 37.15311436 1.99590874 42.26102638 C1.92422654 47.47588103 1.89231444 52.69096239 1.85705376 57.90616798 C1.78204065 68.1339954 1.66261125 78.36078553 1.51525688 88.58780861 C0.69668205 88.44733101 -0.12189278 88.30685341 -0.9652729 88.16211891 C-2.04194221 87.97952522 -3.11861153 87.79693153 -4.22790718 87.6088047 C-5.82701942 87.3362133 -5.82701942 87.3362133 -7.45843697 87.05811501 C-24.533561 84.4045368 -44.49630314 88.14125778 -58.60974312 98.40030861 C-60.03286812 99.48312111 -60.03286812 99.48312111 -61.48474312 100.58780861 C-62.14474312 100.58780861 -62.80474312 100.58780861 -63.48474312 100.58780861 C-63.82284668 96.08815383 -64.15436921 91.588037 -64.48474312 87.08780861 C-64.58013374 85.81937111 -64.67552437 84.55093361 -64.77380562 83.24405861 C-65.0327378 79.69298863 -65.26713519 76.14162964 -65.48474312 72.58780861 C-65.54379829 71.73444923 -65.60285347 70.88108986 -65.6636982 70.00187111 C-65.87267897 65.08096541 -65.87267897 65.08096541 -64.05896187 62.77530861 C-63.12503609 62.18749611 -63.12503609 62.18749611 -62.17224312 61.58780861 C-58.04526865 58.47169226 -56.46169125 55.65572703 -55.48474312 50.58780861 C-54.7181 44.02342691 -55.12167746 38.979805 -58.51208687 33.24405861 C-59.48474312 31.58780861 -59.48474312 31.58780861 -60.48474312 28.58780861 C-62.45962891 27.43011694 -64.421603 26.61092056 -66.56970406 25.82462502 C-68.48474312 24.58780861 -68.48474312 24.58780861 -69.12243843 22.4681797 C-69.18528023 21.60789162 -69.24812202 20.74760353 -69.31286812 19.86124611 C-69.39021187 18.91120705 -69.46755562 17.96116798 -69.54724312 16.98233986 C-69.60911812 15.98589455 -69.67099312 14.98944923 -69.73474312 13.96280861 C-69.81208687 12.98956642 -69.88943062 12.01632423 -69.96911812 11.01358986 C-70.38273732 5.52574941 -70.56315767 0.08989611 -70.48474312 -5.41219139 C-47.75457092 -15.64467441 -20.89529633 -15.21875434 0 0 Z " fill="#55ABDF" transform="translate(104.48474311828613,105.41219139099121)"/>
<path d="M0 0 C1.05828003 0.24786255 1.05828003 0.24786255 2.13793945 0.50073242 C6.40428795 1.58065983 10.14044356 3.08283563 14 5.1875 C14.05390499 11.79086083 13.93244451 18.34742174 13.5 24.9375 C13.47164063 25.85660156 13.44328125 26.77570313 13.4140625 27.72265625 C12.9345162 34.34998617 12.9345162 34.34998617 10.2265625 36.77685547 C8.81621271 37.61150616 7.37964366 38.40349413 5.91992188 39.1484375 C1.73041684 41.41579933 0.33383928 45.84017198 -1 50.1875 C-1.95979027 56.8322019 -1.39020517 63.30135638 2 69.1875 C4.2225732 71.73532781 5.97867331 73.67683666 9 75.1875 C7.70582586 105.07002241 7.70582586 105.07002241 6 110.1875 C2.37040799 108.81166187 -0.96312748 107.15701371 -4.375 105.3125 C-15.11067555 99.87822859 -27.16594531 97.06333801 -39.1875 97 C-41.00314453 96.97873047 -41.00314453 96.97873047 -42.85546875 96.95703125 C-47.95023121 97.24034038 -52.97967244 98.27471317 -58 99.1875 C-58 86.9775 -58 74.7675 -58 62.1875 C-53.05 61.8575 -48.1 61.5275 -43 61.1875 C-40.68436913 59.30249729 -40.68436913 59.30249729 -40.75 56.1875 C-40.68436913 53.07250271 -40.68436913 53.07250271 -43 51.1875 C-45.56916657 50.88150937 -48.04758384 50.67662913 -50.625 50.5625 C-51.33140625 50.52382812 -52.0378125 50.48515625 -52.765625 50.4453125 C-54.50998524 50.35102276 -56.25495691 50.26817109 -58 50.1875 C-58 46.2275 -58 42.2675 -58 38.1875 C-47.44 37.8575 -36.88 37.5275 -26 37.1875 C-26 34.5475 -26 31.9075 -26 29.1875 C-28.82879286 26.35870714 -30.79924198 26.8732334 -34.7578125 26.7734375 C-35.42086395 26.75407135 -36.08391541 26.7347052 -36.76705933 26.7147522 C-38.88624177 26.65494046 -41.0054785 26.60856612 -43.125 26.5625 C-44.56122169 26.52432155 -45.99742045 26.48526989 -47.43359375 26.4453125 C-50.95561029 26.34759181 -54.47738072 26.26804124 -58 26.1875 C-58 21.2375 -58 16.2875 -58 11.1875 C-39.22483919 1.25763318 -21.30995764 -5.00195608 0 0 Z " fill="#FEC00E" transform="translate(177,94.8125)"/>
<path d="M0 0 C8.91518358 5.67712162 14.23787635 13.21417142 17.453125 23.1640625 C19.53279684 34.06308342 18.28579658 45.09146559 12.51953125 54.61328125 C6.04242403 63.83404247 -2.98956578 70.21975467 -14.125 72.375 C-26.66715038 73.39695299 -36.3972733 71.40436924 -46.125 63.22265625 C-53.64073588 56.27940807 -58.7355609 48.22763025 -59.328125 37.80078125 C-59.5778597 24.79086785 -57.4647259 15.07943277 -48.23828125 5.39453125 C-34.33152936 -7.41935213 -16.47698108 -9.02848279 0 0 Z " fill="#194F82" transform="translate(133.125,5.625)"/>
<path d="M0 0 C0.97590088 -0.00056396 1.95180176 -0.00112793 2.95727539 -0.00170898 C10.38050156 0.11135389 16.46345525 1.48266691 23.3125 4.375 C28.53345803 5.98875066 31.02702286 5.13370333 35.8125 2.9375 C47.45022993 -1.86558623 62.12422712 -1.53428626 74 2.4375 C76.13291993 3.35234277 78.23985421 4.33076624 80.3125 5.375 C81.36695313 5.90609375 82.42140625 6.4371875 83.5078125 6.984375 C90.15397856 10.6156136 96.04048713 14.91660284 101.3125 20.375 C101.3125 20.705 101.3125 21.035 101.3125 21.375 C52.4725 21.375 3.6325 21.375 -46.6875 21.375 C-33.80790414 8.49540414 -18.47061197 -0.02682618 0 0 Z " fill="#FDFDFD" transform="translate(84.6875,203.625)"/>
<path d="M0 0 C6.46975113 6.294893 9.29389508 12.50860216 9.6875 21.625 C9.54217853 29.18171668 6.68131904 35.88118096 1.3125 41.25 C-5.78619754 46.47500699 -12.78313151 49.40771083 -21.6875 48.25 C-29.99000876 45.93331204 -36.15787795 42.23604915 -40.5 34.625 C-44.21934927 27.57147678 -45.31547303 19.55567377 -42.93359375 11.79296875 C-41.97387997 9.8246146 -40.92702461 8.05333615 -39.6875 6.25 C-39.11 5.363125 -38.5325 4.47625 -37.9375 3.5625 C-27.73571232 -6.92267067 -12.15340486 -7.91384503 0 0 Z " fill="#FDC00E" transform="translate(129.6875,17.75)"/>
<path d="M0 0 C2 1 2 1 3.3125 4.75 C4.95091326 9.40610299 7.49522134 12.74761067 12 15 C10.70582586 44.88252241 10.70582586 44.88252241 9 50 C5.37040799 48.62416187 2.03687252 46.96951371 -1.375 45.125 C-12.11067555 39.69072859 -24.16594531 36.87583801 -36.1875 36.8125 C-37.39792969 36.79832031 -38.60835937 36.78414062 -39.85546875 36.76953125 C-44.95023121 37.05284038 -49.97967244 38.08721317 -55 39 C-55 26.79 -55 14.58 -55 2 C-51.04 2 -47.08 2 -43 2 C-43 9.26 -43 16.52 -43 24 C-42.34 23.67 -41.68 23.34 -41 23 C-26.85334031 21.9609798 -15.23968943 25.18556748 -2 30 C-1.34 20.1 -0.68 10.2 0 0 Z " fill="#FCFCFB" transform="translate(174,155)"/>
<path d="M0 0 C1.05828003 0.24786255 1.05828003 0.24786255 2.13793945 0.50073242 C6.40428795 1.58065983 10.14044356 3.08283563 14 5.1875 C14.05390499 11.79086083 13.93244451 18.34742174 13.5 24.9375 C13.47164063 25.85660156 13.44328125 26.77570313 13.4140625 27.72265625 C12.93353174 34.36359142 12.93353174 34.36359142 10.2265625 36.75268555 C8.81411778 37.57612659 7.3776511 38.35977291 5.91992188 39.10009766 C3.14663054 40.67083006 2.22867586 42.62029094 1 45.5 C0.4121875 46.82451172 0.4121875 46.82451172 -0.1875 48.17578125 C-0.455625 48.83964844 -0.72375 49.50351563 -1 50.1875 C-1.33 50.1875 -1.66 50.1875 -2 50.1875 C-1.34 37.9775 -0.68 25.7675 0 13.1875 C-13.03281716 11.32566898 -26.94176264 10.10245258 -39 16.1875 C-40.19625 16.620625 -41.3925 17.05375 -42.625 17.5 C-45.40279878 19.08089674 -45.40279878 19.08089674 -45.875 22.875 C-45.91625 23.968125 -45.9575 25.06125 -46 26.1875 C-49.96 26.1875 -53.92 26.1875 -58 26.1875 C-58 21.2375 -58 16.2875 -58 11.1875 C-39.22483919 1.25763318 -21.30995764 -5.00195608 0 0 Z " fill="#FBFBFA" transform="translate(177,94.8125)"/>
<path d="M0 0 C0 6.6 0 13.2 0 20 C-12.13714748 20.4903898 -12.13714748 20.4903898 -15.88671875 18.359375 C-18.53063406 15.40757306 -18.67400371 13.92029692 -18.625 10 C-18.63789063 8.96875 -18.65078125 7.9375 -18.6640625 6.875 C-18 4 -18 4 -15.88671875 1.640625 C-10.77633892 -1.26378573 -5.76510446 -0.23293351 0 0 Z " fill="#FAFBFC" transform="translate(206,141)"/>
<path d="M0 0 C12.13714748 -0.4903898 12.13714748 -0.4903898 15.88671875 1.640625 C18.53063406 4.59242694 18.67400371 6.07970308 18.625 10 C18.63789062 11.03125 18.65078125 12.0625 18.6640625 13.125 C18 16 18 16 15.88671875 18.359375 C10.77633892 21.26378573 5.76510446 20.23293351 0 20 C0 13.4 0 6.8 0 0 Z " fill="#FAFBFC" transform="translate(19,141)"/>
<path d="M0 0 C3.96 0 7.92 0 12 0 C12 3.96 12 7.92 12 12 C8.04 12 4.08 12 0 12 C0 8.04 0 4.08 0 0 Z " fill="#F3F5F8" transform="translate(119,133)"/>
<path d="M0 0 C0.66 0 1.32 0 2 0 C1.71125 0.556875 1.4225 1.11375 1.125 1.6875 C-0.0413253 4.08494645 -1.0339881 6.51596939 -2 9 C-2.33 9 -2.66 9 -3 9 C-2.25 2.25 -2.25 2.25 0 0 Z " fill="#30608D" transform="translate(24,91)"/>
</svg>
